:SAMPLES-PER-SECOND 30
:FRAME-RANGE 1-3549
:FULLY-SPECIFIED
:DEGREES
666
root  41.7164 37.7245 14.7815 -174.433 60.6141 -172.96
RightUpLeg  -1.69881 -3.31937 -15.9377
RightLeg  37.8396 -4.74237 -4.20246
RightFoot  -1.29023 -3.25661 35.793
RightToes  -1.11029e-010 1.2921e-014 -6.02303e-014
Spine  10.3812 -1.3421 -5.53449
Spine1  3.97552 -3.19879 3.93893
HEad  3.25004 -47.9071 8.97845
LeftShoulder1  1.73703 -1.76543 -26.8426
LeftArm  2.95364 4.0691 -37.5781
LeftForeArm  26.7699 -40.2693 -7.76359
LeftHand  -0.404246 1.0777 10.854
RightShoulder  9.5172 14.14 47.2033
RightArm  12.7358 6.51998 14.2412
RightForeArm  13.0842 32.2139 6.36376
RightHand  -0.761951 3.36075 -10.3309
LeftUpLeg  -28.3575 31.0377 -11.5047
LeftLeg  25.4587 6.72574 3.83085
LeftFoot  -7.44407 -0.323082 10.7825
LeftToes  -1.9349e-011 -1.19469e-011 -2.02219e-012
667
root  42.2849 37.6076 13.9319 -176.724 58.962 -174.273
RightUpLeg  -6.2909 2.27271 -16.8195
RightLeg  47.9889 -2.14486 -2.87953
RightFoot  9.77969 -4.60535 24.7174
RightToes  -1.11029e-010 1.2921e-014 -6.02303e-014
Spine  10.8554 -1.39209 -7.32257
Spine1  5.45662 -3.53043 3.85953
HEad  0.408163 -51.2638 12.6413
LeftShoulder1  1.84481 -2.16323 -26.4198
LeftArm  6.94067 1.3739 -40.1119
LeftForeArm  21.5863 -32.22 -5.87184
LeftHand  -0.411134 1.02024 10.9008
RightShoulder  10.2709 15.0828 48.3666
RightArm  10.7767 7.24424 13.4271
RightForeArm  11.421 31.0341 6.16232
RightHand  -0.740024 3.26342 -10.1483
LeftUpLeg  -26.0086 30.1489 -11.4412
LeftLeg  27.4459 6.68669 4.11579
LeftFoot  -9.79064 -0.090953 11.0495
LeftToes  -1.9349e-011 -1.19469e-011 -2.02219e-012
668
root  42.7662 37.4628 13.1521 -178.669 58.4363 -175.94
RightUpLeg  -11.6416 7.20485 -17.4903
RightLeg  55.5488 -1.76649 -3.18238
RightFoot  16.4474 -3.86889 16.0158
RightToes  -1.11029e-010 1.2921e-014 -6.02303e-014
Spine  10.9972 -1.57636 -9.2329
Spine1  6.40191 -3.82898 2.69245
HEad  -0.295804 -52.2302 13.7085
LeftShoulder1  1.90222 -2.39898 -26.082
LeftArm  11.543 -0.0138349 -40.8134
LeftForeArm  14.4944 -26.9255 -5.01639
LeftHand  -0.412669 0.919331 10.7042
RightShoulder  10.5239 15.3836 48.7686
RightArm  12.9137 8.06497 13.7201
RightForeArm  9.07807 28.6285 5.7095
RightHand  -0.70773 3.46711 -9.50758
LeftUpLeg  -24.5221 29.9479 -12.0371
LeftLeg  29.1817 6.63541 4.36952
LeftFoot  -12.3048 0.163438 10.58
LeftToes  -1.9349e-011 -1.19469e-011 -2.02219e-012
669
root  43.2285 37.6068 12.2135 -178.711 57.3634 -175.601
RightUpLeg  -15.7762 10.3244 -16.9685
RightLeg  59.1627 -2.58359 -5.13947
RightFoot  12.8394 -3.0333 14.5099
RightToes  -1.11029e-010 1.2921e-014 -6.02303e-014
Spine  11.3274 -1.95454 -10.238
Spine1  6.22061 -4.56449 3.59133
HEad  0.0929176 -52.5744 13.417
LeftShoulder1  1.8859 -2.36508 -25.9862
LeftArm  15.4281 -1.04365 -41.0997
LeftForeArm  9.22121 -23.1152 -4.59057
LeftHand  -0.409151 0.773956 10.2916
RightShoulder  10.0827 14.7614 48.3185
RightArm  15.2202 7.48894 13.965
RightForeArm  9.32346 26.932 5.30099
RightHand  -0.733643 3.86668 -9.44536
LeftUpLeg  -21.7777 28.9508 -11.6185
LeftLeg  28.4809 6.85723 4.39027
LeftFoot  -13.661 0.287964 10.1274
LeftToes  -1.9349e-011 -1.19469e-011 -2.02219e-012
670
root  43.6605 37.905 11.1575 -178.078 55.8707 -174.517
RightUpLeg  -19.0224 12.226 -15.4158
RightLeg  58.7869 -4.69289 -8.76358
RightFoot  10.4987 -2.37112 12.6218
RightToes  -1.11029e-010 1.2921e-014 -6.02303e-014
Spine  11.4276 -2.40507 -10.3801
Spine1  6.07903 -5.23141 4.7569
HEad  0.165118 -52.8994 13.4685
LeftShoulder1  1.88813 -2.44703 -25.5655
LeftArm  15.6264 -1.86297 -40.7917
LeftForeArm  8.81767 -21.7338 -5.15186
LeftHand  -0.409744 0.722357 10.1974
RightShoulder  9.24491 13.335 48.0666
RightArm  17.3333 6.37163 13.285
RightForeArm  8.68658 24.9069 4.88035
RightHand  -0.77413 3.91955 -9.89666
LeftUpLeg  -17.9511 26.5425 -10.6286
LeftLeg  26.0289 7.83525 4.18134
LeftFoot  -14.245 0.331167 9.65473
LeftToes  -1.9349e-011 -1.19469e-011 -2.02219e-012
671
root  44.0748 38.1974 10.0673 -177.084 54.7289 -173.491
RightUpLeg  -22.1781 13.7743 -13.5078
RightLeg  55.3655 -7.16133 -11.3904
RightFoot  8.0422 -1.99729 11.9808
RightToes  -1.11029e-010 1.2921e-014 -6.02303e-014
Spine  11.1474 -2.84948 -10.4516
Spine1  5.69791 -5.73111 5.81559
HEad  -0.454197 -53.5472 14.242
LeftShoulder1  1.87862 -2.50947 -25.0573
LeftArm  14.9003 -2.32745 -39.6379
LeftForeArm  8.86203 -22.5182 -4.7645
LeftHand  -0.405858 0.768667 10.1971
RightShoulder  8.12739 11.4097 47.7216
RightArm  19.079 5.25052 12.4792
RightForeArm  5.76839 22.3335 4.9565
RightHand  -0.763929 3.95553 -9.73495
LeftUpLeg  -13.9876 18.5775 -8.82743
LeftLeg  23.2552 14.5683 3.97737
LeftFoot  -14.3954 0.325939 8.95385
LeftToes  -1.9349e-011 -1.19469e-011 -2.02219e-012
672
root  44.4868 38.4632 8.96707 -175.409 53.401 -171.711
RightUpLeg  -24.3779 14.6616 -10.5534
RightLeg  49.0475 -9.67992 -12.05
RightFoot  5.68254 -1.92948 13.102
RightToes  -1.11029e-010 1.2921e-014 -6.02303e-014
Spine  10.6632 -3.44185 -10.2355
Spine1  5.20839 -6.37126 7.19216
HEad  -0.902368 -54.0006 14.9147
LeftShoulder1  1.81909 -2.47423 -24.2072
LeftArm  12.7674 -3.20445 -38.0769
LeftForeArm  10.0999 -23.6663 -4.5393
LeftHand  -0.405547 0.961222 10.6137
RightShoulder  7.02363 9.56228 47.0717
RightArm  16.4794 3.86639 11.4219
RightForeArm  5.5854 19.0298 7.1796
RightHand  -0.706143 3.83967 -9.12742
LeftUpLeg  -10.5157 11.1465 -7.33168
LeftLeg  20.125 20.5776 3.19502
LeftFoot  -14.1491 0.306343 9.00203
LeftToes  -1.9349e-011 -1.19469e-011 -2.02219e-012
673
root  44.8869 38.6223 7.87458 -173.859 51.6057 -169.909
RightUpLeg  -25.5165 14.9811 -6.9633
RightLeg  40.7909 -11.41 -10.6238
RightFoot  4.69794 -2.05592 14.7481
RightToes  -1.11029e-010 1.2921e-014 -6.02303e-014
Spine  10.2806 -4.0652 -10.138
Spine1  4.82287 -7.14844 8.86934
HEad  -1.54866 -54.0087 15.4886
LeftShoulder1  1.75516 -2.48656 -23.0181
LeftArm  9.66669 -5.38389 -36.5354
LeftForeArm  10.9261 -24.4421 -4.65766
LeftHand  -0.398872 1.1034 10.7701
RightShoulder  5.87549 7.63572 46.1766
RightArm  9.84703 2.73898 10.0202
RightForeArm  10.1771 14.5229 10.4091
RightHand  -0.670746 3.92196 -8.61299
LeftUpLeg  -7.50127 8.01354 -6.58491
LeftLeg  17.2021 22.0457 2.0142
LeftFoot  -14.153 0.325919 9.77904
LeftToes  -1.9349e-011 -1.19469e-011 -2.02219e-012
674
root  45.2737 38.677 6.75817 -173.261 49.5048 -168.929
RightUpLeg  -25.6381 14.5049 -3.34108
RightLeg  31.4959 -11.539 -7.75507
RightFoot  4.49795 -2.34046 16.9349
RightToes  -1.11029e-010 1.2921e-014 -6.02303e-014
Spine  10.1547 -4.65143 -10.4384
Spine1  4.5576 -7.97844 10.5092
HEad  -2.69586 -54.3302 16.9282
LeftShoulder1  1.71371 -2.59231 -21.7602
LeftArm  6.56406 -8.75606 -34.992
LeftForeArm  11.594 -25.0392 -4.75262
LeftHand  -0.409624 1.05374 10.9412
RightShoulder  4.85078 5.85704 45.3528
RightArm  3.00924 1.38072 8.22969
RightForeArm  15.6183 10.1096 12.5724
RightHand  -0.650134 3.91698 -8.36145
LeftUpLeg  -4.39555 6.689 -6.70878
LeftLeg  14.5237 21.5995 1.23851
LeftFoot  -14.2444 0.35537 10.6024
LeftToes  -1.9349e-011 -1.19469e-011 -2.02219e-012
675
root  45.6675 38.5899 5.59472 -173.376 47.3878 -168.711
RightUpLeg  -25.0104 12.2701 0.522673
RightLeg  22.3425 -7.80669 -3.71861
RightFoot  3.79963 -2.57809 19.4243
RightToes  -1.11029e-010 1.2921e-014 -6.02303e-014
Spine  9.80807 -5.1961 -11.0951
Spine1  4.63767 -8.77863 11.8678
HEad  -3.8861 -54.8954 17.8837
LeftShoulder1  1.68964 -2.74972 -20.5972
LeftArm  3.63577 -13.204 -33.9823
LeftForeArm  12.9333 -25.3057 -4.7397
LeftHand  -0.419721 1.15645 11.4754
RightShoulder  3.89898 4.17939 44.3918
RightArm  -2.00684 -0.107431 6.53056
RightForeArm  19.6344 6.56996 13.5451
RightHand  -0.641879 3.84206 -8.32127
LeftUpLeg  -1.54988 6.25227 -7.38497
LeftLeg  12.8683 20.5145 0.954944
LeftFoot  -15.0278 0.451074 11.1623
LeftToes  -1.9349e-011 -1.19469e-011 -2.02219e-012
